<?xml version="1.0"?>
<svg version="1.1" xmlns="http://www.w3.org/2000/svg" xmlns:xlink="http://www.w3.org/1999/xlink" width="286" height="286">
    <g id="Layer1" name="Layer 1" opacity="1">
        <g id="Shape1">
            <path id="shapePath1" d="M143,0 L205,35.796 L267,71.5907 L267,143.183 L267,214.775 L205,250.571 L143,286.365 L81,250.571 L19,214.775 L19,143.183 L19,71.5907 L81,35.796 L143,0 M143,21.2453 L195.8,51.7293 L248.601,82.2147 L248.601,143.183 L248.601,204.151 L195.8,234.636 L143,265.12 L90.2,234.636 L37.3987,204.151 L37.3987,143.183 L37.3987,82.2147 L90.2,51.7293 L143,21.2453 Z" style="stroke:none;fill-rule:evenodd;fill:#FFF;fill-opacity:1;"/>
        </g>
        <g id="Shape2">
            <path id="shapePath2" d="M143,204.155 L90.1973,173.668 L90.196,148.516 L47.3973,123.807 L47.3973,198.379 L143,253.574 C174.868,235.176 206.735,216.778 238.603,198.379 L238.603,173.704 L111.565,100.359 C122.044,94.3096 132.521,88.2603 143,82.2109 L195.803,112.696 L195.803,137.883 L238.603,162.594 L238.603,87.9869 L143,32.7909 C111.133,51.1896 79.2653,69.5883 47.3973,87.9869 L47.3973,112.696 L174.404,186.023 C163.936,192.068 153.468,198.111 143,204.155 Z" style="stroke:none;fill-rule:evenodd;fill:#FFF;fill-opacity:1;"/>
        </g>
    </g>
</svg>
